<mxfile host="65bd71144e">
    <diagram id="-dW0x4oIb6qleeKS4_x-" name="Page-1">
        <mxGraphModel dx="1722" dy="1162" grid="1" gridSize="10" guides="1" tooltips="1" connect="1" arrows="1" fold="1" page="1" pageScale="1" pageWidth="850" pageHeight="1100" math="0" shadow="0">
            <root>
                <mxCell id="0"/>
                <mxCell id="1" parent="0"/>
                <mxCell id="2" value="" style="rounded=0;whiteSpace=wrap;html=1;fillColor=none;dashed=1;" parent="1" vertex="1">
                    <mxGeometry x="40" y="80" width="320" height="120" as="geometry"/>
                </mxCell>
                <mxCell id="3" value="フロントエンド" style="text;html=1;strokeColor=none;fillColor=none;align=center;verticalAlign=middle;whiteSpace=wrap;rounded=0;" parent="1" vertex="1">
                    <mxGeometry x="140" y="50" width="120" height="30" as="geometry"/>
                </mxCell>
                <mxCell id="4" value="画面" style="rounded=0;whiteSpace=wrap;html=1;fillColor=none;" parent="1" vertex="1">
                    <mxGeometry x="50" y="95" width="100" height="90" as="geometry"/>
                </mxCell>
                <mxCell id="9" value="" style="shape=cylinder3;whiteSpace=wrap;html=1;boundedLbl=1;backgroundOutline=1;size=6.5;fillColor=none;" parent="1" vertex="1">
                    <mxGeometry x="440" y="80" width="240" height="120" as="geometry"/>
                </mxCell>
                <mxCell id="11" value="コレクションA" style="rounded=0;whiteSpace=wrap;html=1;fillColor=none;" parent="1" vertex="1">
                    <mxGeometry x="510" y="102.5" width="100" height="30" as="geometry"/>
                </mxCell>
                <mxCell id="12" value="コレクションB" style="rounded=0;whiteSpace=wrap;html=1;fillColor=none;" parent="1" vertex="1">
                    <mxGeometry x="510" y="147.5" width="100" height="30" as="geometry"/>
                </mxCell>
                <mxCell id="13" value="Firestore" style="text;html=1;strokeColor=none;fillColor=none;align=center;verticalAlign=middle;whiteSpace=wrap;rounded=0;" parent="1" vertex="1">
                    <mxGeometry x="500" y="50" width="120" height="30" as="geometry"/>
                </mxCell>
                <mxCell id="14" value="" style="endArrow=classic;html=1;entryX=0;entryY=0.5;entryDx=0;entryDy=0;startArrow=classic;startFill=1;exitX=1;exitY=0.25;exitDx=0;exitDy=0;" parent="1" source="4" target="27" edge="1">
                    <mxGeometry width="50" height="50" relative="1" as="geometry">
                        <mxPoint x="180" y="125" as="sourcePoint"/>
                        <mxPoint x="250" y="125" as="targetPoint"/>
                    </mxGeometry>
                </mxCell>
                <mxCell id="15" value="取得／&lt;br&gt;データ" style="text;html=1;strokeColor=none;fillColor=none;align=center;verticalAlign=middle;whiteSpace=wrap;rounded=0;" parent="1" vertex="1">
                    <mxGeometry x="166" y="125" width="60" height="30" as="geometry"/>
                </mxCell>
                <mxCell id="16" value="" style="endArrow=classic;html=1;exitX=1;exitY=0.5;exitDx=0;exitDy=0;entryX=0;entryY=0.5;entryDx=0;entryDy=0;startArrow=classic;startFill=1;" parent="1" source="27" target="11" edge="1">
                    <mxGeometry width="50" height="50" relative="1" as="geometry">
                        <mxPoint x="350" y="125" as="sourcePoint"/>
                        <mxPoint x="450" y="125" as="targetPoint"/>
                    </mxGeometry>
                </mxCell>
                <mxCell id="17" value="クエリ／データ" style="text;html=1;strokeColor=none;fillColor=none;align=center;verticalAlign=middle;whiteSpace=wrap;rounded=0;" parent="1" vertex="1">
                    <mxGeometry x="370" y="125" width="60" height="30" as="geometry"/>
                </mxCell>
                <mxCell id="23" value="" style="endArrow=classic;html=1;exitX=0;exitY=0.5;exitDx=0;exitDy=0;entryX=1;entryY=0.5;entryDx=0;entryDy=0;startArrow=classic;startFill=1;" parent="1" source="12" target="28" edge="1">
                    <mxGeometry width="50" height="50" relative="1" as="geometry">
                        <mxPoint x="450" y="155" as="sourcePoint"/>
                        <mxPoint x="350" y="155" as="targetPoint"/>
                    </mxGeometry>
                </mxCell>
                <mxCell id="26" value="" style="endArrow=classic;html=1;exitX=0;exitY=0.5;exitDx=0;exitDy=0;entryX=1;entryY=0.75;entryDx=0;entryDy=0;startArrow=classic;startFill=1;" parent="1" source="28" target="4" edge="1">
                    <mxGeometry width="50" height="50" relative="1" as="geometry">
                        <mxPoint x="250" y="155" as="sourcePoint"/>
                        <mxPoint x="180" y="310" as="targetPoint"/>
                    </mxGeometry>
                </mxCell>
                <mxCell id="27" value="コレクションA&lt;br&gt;取得" style="rounded=0;whiteSpace=wrap;html=1;fillColor=none;" vertex="1" parent="1">
                    <mxGeometry x="240" y="102.5" width="100" height="30" as="geometry"/>
                </mxCell>
                <mxCell id="28" value="コレクションB&lt;br&gt;取得" style="rounded=0;whiteSpace=wrap;html=1;fillColor=none;" vertex="1" parent="1">
                    <mxGeometry x="240" y="147.5" width="100" height="30" as="geometry"/>
                </mxCell>
            </root>
        </mxGraphModel>
    </diagram>
</mxfile>